<?xml version="1.0" encoding="UTF-8"?>
<!--Generator: Apple Native CoreSVG 360-->
<!DOCTYPE svg
PUBLIC "-//W3C//DTD SVG 1.1//EN"
       "http://www.w3.org/Graphics/SVG/1.1/DTD/svg11.dtd">
<svg version="1.1" xmlns="http://www.w3.org/2000/svg" xmlns:xlink="http://www.w3.org/1999/xlink" viewBox="0 0 12.6242 12.6328">
 <g>
  <rect height="12.6328" opacity="0" width="12.6242" x="0" y="0"/>
  <path d="M2.0915 12.6328L10.5327 12.6328C11.9237 12.6328 12.6242 11.9262 12.6242 10.5587L12.6242 2.07685C12.6242 0.709335 11.9237 0.00276172 10.5327 0.00276172L2.0915 0.00276172C0.706293 0.00276172 1.11022e-15 0.703251 1.11022e-15 2.07685L1.11022e-15 10.5587C1.11022e-15 11.9323 0.706293 12.6328 2.0915 12.6328ZM2.10919 11.6756C1.3597 11.6756 0.951375 11.2789 0.951375 10.512L0.951375 2.12356C0.951375 1.35086 1.3597 0.95994 2.10919 0.95994L10.515 0.95994C11.2524 0.95994 11.6729 1.35086 11.6729 2.12356L11.6729 10.512C11.6729 11.2789 11.2524 11.6756 10.515 11.6756Z" fill="#0091ff"/>
  <path d="M3.89877 5.59861L7.00158 8.70003L9.62401 6.0776C9.97574 5.72743 9.96984 5.26724 9.61082 4.90978L7.68903 2.98573C7.33295 2.62887 6.87216 2.62384 6.52121 2.97479ZM3.15901 8.06095L4.53638 9.43979C5.08073 9.98023 5.70428 9.99585 6.22069 9.47944L6.60622 9.09677L3.50342 5.99397L3.11849 6.37586C2.60069 6.89365 2.6177 7.51885 3.15901 8.06095Z" fill="white"/>
 </g>
</svg>
