<?xml version="1.0" encoding="UTF-8"?>
<!-- Generator: Apple Native CoreSVG 360 -->
<!DOCTYPE svg
PUBLIC "-//W3C//DTD SVG 1.1//EN"
       "http://www.w3.org/Graphics/SVG/1.1/DTD/svg11.dtd">
<svg version="1.1" xmlns="http://www.w3.org/2000/svg"
     xmlns:xlink="http://www.w3.org/1999/xlink" viewBox="0 0 14.4966 15.4526">
 <g>
  <rect height="15.4526" opacity="0" width="14.4966" x="0" y="0"/>
  <path d="M13.2451 10.2964C13.7339 10.5811 13.938 10.8066 13.938 11.1558C13.938 11.4995 13.7339 11.7251 13.2451 12.0151L7.75049 15.1948C7.45508 15.3721 7.21875 15.4526 6.96631 15.4526C6.71924 15.4526 6.48291 15.3721 6.18213 15.1948L0.692871 12.0151C0.19873 11.7251 0 11.4995 0 11.1558C0 10.8066 0.19873 10.5811 0.692871 10.2964L2.00733 9.53369L2.97687 10.0963L1.29443 11.0591C1.25684 11.0806 1.22461 11.1074 1.22461 11.1558C1.22461 11.1987 1.25684 11.2256 1.29443 11.2471L6.68164 14.3301C6.78906 14.3945 6.875 14.4268 6.96631 14.4268C7.06299 14.4268 7.14355 14.3945 7.25098 14.3301L12.6382 11.2471C12.6812 11.2256 12.708 11.1987 12.708 11.1558C12.708 11.1074 12.6812 11.0806 12.6382 11.0591L10.9573 10.0972L11.9294 9.53369ZM3.95988 9.53369L3.95988 9.53369L2.97687 8.97113ZM9.97274 9.53369L9.97274 9.53369L10.9573 8.97023Z" fill="#f74f9e"/>
  <path d="M13.2451 7.05225C13.7339 7.34229 13.938 7.56787 13.938 7.91162C13.938 8.26074 13.7339 8.48633 13.2451 8.771L7.75049 11.9561C7.45508 12.1279 7.21875 12.2139 6.96631 12.2139C6.71924 12.2139 6.48291 12.1279 6.18213 11.9561L0.692871 8.771C0.19873 8.48633 0 8.26074 0 7.91162C0 7.56787 0.19873 7.34229 0.692871 7.05225L2.17395 6.19287L3.1477 6.75787L1.29443 7.82031C1.25684 7.8418 1.22461 7.86865 1.22461 7.91162C1.22461 7.95996 1.25684 7.98145 1.29443 8.0083L6.68164 11.0913C6.78906 11.1504 6.875 11.1826 6.96631 11.1826C7.06299 11.1826 7.14355 11.1504 7.25098 11.0913L12.6382 8.0083C12.6812 7.98145 12.708 7.95996 12.708 7.91162C12.708 7.86865 12.6812 7.8418 12.6382 7.82031L10.7864 6.75873L11.7626 6.19287Z" fill="#f74f9e"/>
  <path d="M6.96631 8.77637C7.21875 8.77637 7.45508 8.69043 7.75049 8.51855L13.2451 5.3335C13.7339 5.04883 13.938 4.82324 13.938 4.47412C13.938 4.13037 13.7339 3.90479 13.2451 3.61475L7.75049 0.435059C7.45508 0.257812 7.21875 0.177246 6.96631 0.177246C6.71924 0.177246 6.48291 0.257812 6.18213 0.435059L0.692871 3.61475C0.19873 3.90479 0 4.13037 0 4.47412C0 4.82324 0.19873 5.04883 0.692871 5.3335L6.18213 8.51855C6.48291 8.69043 6.71924 8.77637 6.96631 8.77637ZM6.96631 7.74512C6.875 7.74512 6.78906 7.71289 6.68164 7.65381L1.29443 4.5708C1.25684 4.54395 1.22461 4.52246 1.22461 4.47412C1.22461 4.43115 1.25684 4.4043 1.29443 4.38281L6.68164 1.29443C6.78906 1.23535 6.875 1.20312 6.96631 1.20312C7.06299 1.20312 7.14355 1.23535 7.25098 1.29443L12.6382 4.38281C12.6812 4.4043 12.708 4.43115 12.708 4.47412C12.708 4.52246 12.6812 4.54395 12.6382 4.5708L7.25098 7.65381C7.14355 7.71289 7.06299 7.74512 6.96631 7.74512Z" fill="white" fill-opacity="0.85"/>
 </g>
</svg>
